<?xml version="1.0" encoding="UTF-8" standalone="no"?>
<svg
   style="font-style:normal;font-weight:normal;font-size:12px;font-family:Dialog;color-interpolation:auto;fill:#000000;fill-opacity:1;stroke:#000000;stroke-width:1;stroke-linecap:square;stroke-linejoin:miter;stroke-miterlimit:10;stroke-dasharray:none;stroke-dashoffset:0;stroke-opacity:1;color-rendering:auto;image-rendering:auto;shape-rendering:auto;text-rendering:auto"
   width="4096"
   height="300"
   version="1.1"
   id="svg205"
   sodipodi:docname="CNTC.svg"
   inkscape:version="1.2.2 (732a01da63, 2022-12-09)"
   xmlns:inkscape="http://www.inkscape.org/namespaces/inkscape"
   xmlns:sodipodi="http://sodipodi.sourceforge.net/DTD/sodipodi-0.dtd"
   xmlns="http://www.w3.org/2000/svg"
   xmlns:svg="http://www.w3.org/2000/svg">
  <sodipodi:namedview
     id="namedview207"
     pagecolor="#000000"
     bordercolor="#000000"
     borderopacity="0.25"
     inkscape:showpageshadow="2"
     inkscape:pageopacity="0"
     inkscape:pagecheckerboard="0"
     inkscape:deskcolor="#070b0b"
     showgrid="false"
     showborder="false"
     showguides="true"
     inkscape:zoom="0.10634138"
     inkscape:cx="2661.2407"
     inkscape:cy="-122.24781"
     inkscape:window-width="1366"
     inkscape:window-height="697"
     inkscape:window-x="-8"
     inkscape:window-y="-8"
     inkscape:window-maximized="1"
     inkscape:current-layer="layer4" />
  <!--Generated by the Batik Graphics2D SVG Generator-->
  <defs
     id="genericDefs" />
  <g
     inkscape:groupmode="layer"
     id="layer1"
     inkscape:label="source"
     style="display:inline">
    <g
       id="g203"
       style="font-style:normal;font-weight:normal;font-size:12px;font-family:Dialog;color-interpolation:auto;fill:#000000;fill-opacity:1;stroke:#000000;stroke-width:1;stroke-linecap:square;stroke-linejoin:miter;stroke-miterlimit:10;stroke-dasharray:none;stroke-dashoffset:0;stroke-opacity:1;color-rendering:auto;image-rendering:auto;shape-rendering:auto;text-rendering:auto"
       transform="translate(0,672)">
      <g
         style="fill:#00ff00;stroke:#00ff00;stroke-linecap:round"
         id="g5">
        <line
           y2="-128"
           style="fill:none"
           x1="0"
           x2="255"
           y1="0"
           id="line3" />
      </g>
      <g
         style="fill:#00ff00;stroke:#00ff00;stroke-linecap:round"
         id="g201">
        <line
           y2="-448"
           style="fill:none"
           x1="255"
           x2="191"
           y1="-608"
           id="line7" />
        <line
           y2="-608"
           style="fill:none"
           x1="191"
           x2="127"
           y1="-448"
           id="line9" />
        <line
           y2="-608"
           style="fill:none"
           x1="127"
           x2="-1"
           y1="-608"
           id="line11" />
        <line
           y2="-672"
           style="fill:none"
           x1="-1"
           x2="254"
           y1="-672"
           id="line13" />
        <line
           y2="-128"
           style="fill:none"
           x1="254"
           x2="382"
           y1="-128"
           id="line15" />
        <line
           y2="-256"
           style="fill:none"
           x1="382"
           x2="446"
           y1="-128"
           id="line17" />
        <line
           y2="-64"
           style="fill:none"
           x1="446"
           x2="510"
           y1="-256"
           id="line19" />
        <line
           y2="-512"
           style="fill:none"
           x1="510"
           x2="446"
           y1="-608"
           id="line21" />
        <line
           y2="-608"
           style="fill:none"
           x1="446"
           x2="382"
           y1="-512"
           id="line23" />
        <line
           y2="-608"
           style="fill:none"
           x1="382"
           x2="254"
           y1="-608"
           id="line25" />
        <line
           y2="-672"
           style="fill:none"
           x1="254"
           x2="509"
           y1="-672"
           id="line27" />
        <line
           y2="-96"
           style="fill:none"
           x1="509"
           x2="541"
           y1="-64"
           id="line29" />
        <line
           y2="-96"
           style="fill:none"
           x1="541"
           x2="637"
           y1="-96"
           id="line31" />
        <line
           y2="-192"
           style="fill:none"
           x1="637"
           x2="701"
           y1="-96"
           id="line33" />
        <line
           y2="-96"
           style="fill:none"
           x1="701"
           x2="765"
           y1="-192"
           id="line35" />
        <line
           y2="-608"
           style="fill:none"
           x1="765"
           x2="510"
           y1="-608"
           id="line37" />
        <line
           y2="-672"
           style="fill:none"
           x1="510"
           x2="765"
           y1="-672"
           id="line39" />
        <line
           y2="-32"
           style="fill:none"
           x1="765"
           x2="829"
           y1="-96"
           id="line41" />
        <line
           y2="-32"
           style="fill:none"
           x1="829"
           x2="957"
           y1="-32"
           id="line43" />
        <line
           y2="-96"
           style="fill:none"
           x1="957"
           x2="1021"
           y1="-32"
           id="line45" />
        <line
           y2="-608"
           style="fill:none"
           x1="1021"
           x2="766"
           y1="-608"
           id="line47" />
        <line
           y2="-672"
           style="fill:none"
           x1="766"
           x2="958"
           y1="-672"
           id="line49" />
        <line
           y2="-608"
           style="fill:none"
           x1="958"
           x2="1022"
           y1="-672"
           id="line51" />
        <line
           y2="-288"
           style="fill:none"
           x1="1022"
           x2="1086"
           y1="-96"
           id="line53" />
        <line
           y2="-96"
           style="fill:none"
           x1="1086"
           x2="1150"
           y1="-288"
           id="line55" />
        <line
           y2="0"
           style="fill:none"
           x1="1150"
           x2="1278"
           y1="-96"
           id="line57" />
        <line
           y2="-128"
           style="fill:none"
           x1="1278"
           x2="1310"
           y1="0"
           id="line59" />
        <line
           y2="-128"
           style="fill:none"
           x1="1310"
           x2="1374"
           y1="-128"
           id="line61" />
        <line
           y2="0"
           style="fill:none"
           x1="1374"
           x2="1534"
           y1="-128"
           id="line63" />
        <line
           y2="-608"
           style="fill:none"
           x1="1534"
           x2="1406"
           y1="-608"
           id="line65" />
        <line
           y2="-448"
           style="fill:none"
           x1="1406"
           x2="1342"
           y1="-608"
           id="line67" />
        <line
           y2="-608"
           style="fill:none"
           x1="1342"
           x2="1278"
           y1="-448"
           id="line69" />
        <line
           y2="-672"
           style="fill:none"
           x1="1278"
           x2="1342"
           y1="-608"
           id="line71" />
        <line
           y2="-672"
           style="fill:none"
           x1="1342"
           x2="1534"
           y1="-672"
           id="line73" />
        <line
           y2="-128"
           style="fill:none"
           x1="1534"
           x2="1566"
           y1="0"
           id="line75" />
        <line
           y2="-128"
           style="fill:none"
           x1="1566"
           x2="1630"
           y1="-128"
           id="line77" />
        <line
           y2="0"
           style="fill:none"
           x1="1630"
           x2="1662"
           y1="-128"
           id="line79" />
        <line
           y2="-128"
           style="fill:none"
           x1="1662"
           x2="1790"
           y1="0"
           id="line81" />
        <line
           y2="-608"
           style="fill:none"
           x1="1790"
           x2="1662"
           y1="-608"
           id="line83" />
        <line
           y2="-480"
           style="fill:none"
           x1="1662"
           x2="1598"
           y1="-608"
           id="line85" />
        <line
           y2="-608"
           style="fill:none"
           x1="1598"
           x2="1534"
           y1="-480"
           id="line87" />
        <line
           y2="-672"
           style="fill:none"
           x1="1534"
           x2="1726"
           y1="-672"
           id="line89" />
        <line
           y2="-608"
           style="fill:none"
           x1="1726"
           x2="1790"
           y1="-672"
           id="line91" />
        <line
           y2="-32"
           style="fill:none"
           x1="1790"
           x2="1854"
           y1="-128"
           id="line93" />
        <line
           y2="-32"
           style="fill:none"
           x1="1854"
           x2="1950"
           y1="-32"
           id="line95" />
        <line
           y2="-192"
           style="fill:none"
           x1="1950"
           x2="2046"
           y1="-32"
           id="line97" />
        <line
           y2="-192"
           style="fill:none"
           x1="2046"
           x2="2174"
           y1="-192"
           id="line99" />
        <line
           y2="-288"
           style="fill:none"
           x1="2174"
           x2="2238"
           y1="-192"
           id="line101" />
        <line
           y2="-192"
           style="fill:none"
           x1="2238"
           x2="2302"
           y1="-288"
           id="line103" />
        <line
           y2="-448"
           style="fill:none"
           x1="2302"
           x2="2238"
           y1="-608"
           id="line105" />
        <line
           y2="-608"
           style="fill:none"
           x1="2238"
           x2="2174"
           y1="-448"
           id="line107" />
        <line
           y2="-608"
           style="fill:none"
           x1="2174"
           x2="2046"
           y1="-608"
           id="line109" />
        <line
           y2="-672"
           style="fill:none"
           x1="2046"
           x2="2110"
           y1="-608"
           id="line111" />
        <line
           y2="-672"
           style="fill:none"
           x1="2110"
           x2="2302"
           y1="-672"
           id="line113" />
        <line
           y2="-288"
           style="fill:none"
           x1="2302"
           x2="2366"
           y1="-192"
           id="line115" />
        <line
           y2="-192"
           style="fill:none"
           x1="2366"
           x2="2430"
           y1="-288"
           id="line117" />
        <line
           y2="-192"
           style="fill:none"
           x1="2430"
           x2="2526"
           y1="-192"
           id="line119" />
        <line
           y2="-64"
           style="fill:none"
           x1="2526"
           x2="2558"
           y1="-192"
           id="line121" />
        <line
           y2="-512"
           style="fill:none"
           x1="2558"
           x2="2494"
           y1="-608"
           id="line123" />
        <line
           y2="-608"
           style="fill:none"
           x1="2494"
           x2="2430"
           y1="-512"
           id="line125" />
        <line
           y2="-608"
           style="fill:none"
           x1="2430"
           x2="2302"
           y1="-608"
           id="line127" />
        <line
           y2="-672"
           style="fill:none"
           x1="2302"
           x2="2557"
           y1="-672"
           id="line129" />
        <line
           y2="-64"
           style="fill:none"
           x1="2557"
           x2="2621"
           y1="-64"
           id="line131" />
        <line
           y2="-128"
           style="fill:none"
           x1="2621"
           x2="2685"
           y1="-64"
           id="line133" />
        <line
           y2="-256"
           style="fill:none"
           x1="2685"
           x2="2749"
           y1="-128"
           id="line135" />
        <line
           y2="-128"
           style="fill:none"
           x1="2749"
           x2="2813"
           y1="-256"
           id="line137" />
        <line
           y2="-608"
           style="fill:none"
           x1="2813"
           x2="2558"
           y1="-608"
           id="line139" />
        <line
           y2="-672"
           style="fill:none"
           x1="2558"
           x2="2813"
           y1="-672"
           id="line141" />
        <line
           y2="-32"
           style="fill:none"
           x1="2813"
           x2="2877"
           y1="-128"
           id="line143" />
        <line
           y2="-32"
           style="fill:none"
           x1="2877"
           x2="2941"
           y1="-32"
           id="line145" />
        <line
           y2="-160"
           style="fill:none"
           x1="2941"
           x2="3005"
           y1="-32"
           id="line147" />
        <line
           y2="-32"
           style="fill:none"
           x1="3005"
           x2="3069"
           y1="-160"
           id="line149" />
        <line
           y2="-608"
           style="fill:none"
           x1="3069"
           x2="2814"
           y1="-608"
           id="line151" />
        <line
           y2="-672"
           style="fill:none"
           x1="2814"
           x2="3069"
           y1="-672"
           id="line153" />
        <line
           y2="-64"
           style="fill:none"
           x1="3069"
           x2="3133"
           y1="-32"
           id="line155" />
        <line
           y2="-64"
           style="fill:none"
           x1="3133"
           x2="3197"
           y1="-64"
           id="line157" />
        <line
           y2="-256"
           style="fill:none"
           x1="3197"
           x2="3261"
           y1="-64"
           id="line159" />
        <line
           y2="-64"
           style="fill:none"
           x1="3261"
           x2="3325"
           y1="-256"
           id="line161" />
        <line
           y2="-608"
           style="fill:none"
           x1="3325"
           x2="3070"
           y1="-608"
           id="line163" />
        <line
           y2="-672"
           style="fill:none"
           x1="3070"
           x2="3325"
           y1="-672"
           id="line165" />
        <line
           y2="-128"
           style="fill:none"
           x1="3325"
           x2="3389"
           y1="-64"
           id="line167" />
        <line
           y2="-128"
           style="fill:none"
           x1="3389"
           x2="3453"
           y1="-128"
           id="line169" />
        <line
           y2="-64"
           style="fill:none"
           x1="3453"
           x2="3581"
           y1="-128"
           id="line171" />
        <line
           y2="-480"
           style="fill:none"
           x1="3581"
           x2="3517"
           y1="-608"
           id="line173" />
        <line
           y2="-608"
           style="fill:none"
           x1="3517"
           x2="3453"
           y1="-480"
           id="line175" />
        <line
           y2="-608"
           style="fill:none"
           x1="3453"
           x2="3325"
           y1="-608"
           id="line177" />
        <line
           y2="-672"
           style="fill:none"
           x1="3325"
           x2="3517"
           y1="-672"
           id="line179" />
        <line
           y2="-608"
           style="fill:none"
           x1="3517"
           x2="3581"
           y1="-672"
           id="line181" />
        <line
           y2="-128"
           style="fill:none"
           x1="3581"
           x2="3677"
           y1="-64"
           id="line183" />
        <line
           y2="-128"
           style="fill:none"
           x1="3677"
           x2="3837"
           y1="-128"
           id="line185" />
        <line
           y2="-288"
           style="fill:none"
           x1="3837"
           x2="3901"
           y1="-128"
           id="line187" />
        <line
           y2="-128"
           style="fill:none"
           x1="3901"
           x2="3965"
           y1="-288"
           id="line189" />
        <line
           y2="-128"
           style="fill:none"
           x1="3965"
           x2="4029"
           y1="-128"
           id="line191" />
        <line
           y2="0"
           style="fill:none"
           x1="4029"
           x2="4093"
           y1="-128"
           id="line193" />
        <line
           y2="-608"
           style="fill:none"
           x1="4093"
           x2="3838"
           y1="-608"
           id="line195" />
        <line
           y2="-672"
           style="fill:none"
           x1="3838"
           x2="3902"
           y1="-608"
           id="line197" />
        <line
           y2="-672"
           style="fill:none"
           x1="3902"
           x2="4094"
           y1="-672"
           id="line199" />
      </g>
    </g>
  </g>
  <g
     inkscape:groupmode="layer"
     id="layer3"
     inkscape:label="Physical"
     style="display:inline"
     gravity="25">
    <path
       style="fill:#d2fff6;fill-opacity:0.37276;stroke:#d2fff6;stroke-linejoin:round;stroke-opacity:1;paint-order:markers fill stroke"
       d="M -92,972 0,672 255,544 H 382 L 509.75,607.25 572.88136,972 Z"
       id="path1645"
       sodipodi:nodetypes="ccccccc" />
    <path
       style="fill:#d2fff6;fill-opacity:0.37276;stroke:#d2fff6;stroke-linejoin:round;stroke-opacity:1;paint-order:markers fill stroke"
       d="m 382,544 64,-128 63.75,191.25 -84.32627,18.98729 z"
       id="path1797" />
    <path
       style="fill:#d2fff6;fill-opacity:0.37276;stroke:#d2fff6;stroke-linejoin:round;stroke-opacity:1;paint-order:markers fill stroke"
       d="M 445.76271,972 509.75,607.25 541,576 h 224 l 64,64 76.08474,332 z"
       id="path1799" />
    <path
       style="fill:#d2fff6;fill-opacity:0.37276;stroke:#d2fff6;stroke-linejoin:round;stroke-opacity:1;paint-order:markers fill stroke"
       d="m 637,576 64,-96 64,96 -63.30509,57.01695 z"
       id="path1801" />
    <path
       style="fill:#d2fff6;fill-opacity:0.37276;stroke:#d2fff6;stroke-linejoin:round;stroke-opacity:1;paint-order:markers fill stroke"
       d="M 764.40678,972 829,640 h 128 l 131.1356,332 z"
       id="path1803" />
    <path
       style="fill:#d2fff6;fill-opacity:0.37276;stroke:#d2fff6;stroke-linejoin:round;stroke-opacity:1;paint-order:markers fill stroke"
       d="M 952.54237,972 957,640 l 65,-64 h 128 l 128,96 54.2034,300 z"
       id="path1805" />
    <path
       style="fill:#d2fff6;fill-opacity:0.37276;stroke:#d2fff6;stroke-linejoin:round;stroke-opacity:1;paint-order:markers fill stroke"
       d="m 1022,576 64,-192 64,192 -66.9492,43.45763 z"
       id="path1807" />
    <path
       style="fill:#d2fff6;fill-opacity:0.37276;stroke:#d2fff6;stroke-linejoin:round;stroke-opacity:1;paint-order:markers fill stroke"
       d="M 1289.8305,972 1278,672 1310,544 h 64 l 160,128 49.0508,300 z"
       id="path1809" />
    <path
       style="fill:#d2fff6;fill-opacity:0.37276;stroke:#d2fff6;stroke-linejoin:round;stroke-opacity:1;paint-order:markers fill stroke"
       d="M 1550.8475,972 1534,672 1566,544 h 64 l 32,128 7.4915,300 z"
       id="path1811" />
    <path
       style="fill:#d2fff6;fill-opacity:0.37276;stroke:#d2fff6;stroke-linejoin:round;stroke-opacity:1;paint-order:markers fill stroke"
       d="M 1620.339,972 1662,672 l 128,-128 64,96 56.1695,332 z"
       id="path1813" />
    <path
       style="fill:#d2fff6;fill-opacity:0.37276;stroke:#d2fff6;stroke-linejoin:round;stroke-opacity:1;paint-order:markers fill stroke"
       d="M 1806.7797,972 1854,640 h 96 l 104.2373,332 z"
       id="path1815" />
    <path
       style="fill:#d2fff6;fill-opacity:0.37276;stroke:#d2fff6;stroke-linejoin:round;stroke-opacity:1;paint-order:markers fill stroke"
       d="M 1955.9322,972 1950,640 2046,480 h 480 l 32,128 -5.4576,364 z"
       id="path1817" />
    <path
       style="fill:#d2fff6;fill-opacity:0.37276;stroke:#d2fff6;stroke-linejoin:round;stroke-opacity:1;paint-order:markers fill stroke"
       d="m 2174,480 64,-96 64,96 -64.7119,44.54237 z"
       id="path1819" />
    <path
       style="fill:#d2fff6;fill-opacity:0.37276;stroke:#d2fff6;stroke-linejoin:round;stroke-opacity:1;paint-order:markers fill stroke"
       d="m 2302,480 64,-96 64,96 -57.1186,47.9322 z"
       id="path1821" />
    <path
       style="fill:#d2fff6;fill-opacity:0.37276;stroke:#d2fff6;stroke-linejoin:round;stroke-opacity:1;paint-order:markers fill stroke"
       d="M 2467.7966,972 2558,608 h 63 l 256,32 50.1186,332 z"
       id="path1823" />
    <path
       style="fill:#d2fff6;fill-opacity:0.37276;stroke:#d2fff6;stroke-linejoin:round;stroke-opacity:1;paint-order:markers fill stroke"
       d="m 2621,608 64,-64 h 128 l 64,96 -136.322,32 z"
       id="path1825" />
    <path
       style="fill:#d2fff6;fill-opacity:0.37276;stroke:#d2fff6;stroke-linejoin:round;stroke-opacity:1;paint-order:markers fill stroke"
       d="m 2685,544 64,-128 64,128 -72.1273,78.98409 z"
       id="path1827" />
    <path
       style="fill:#d2fff6;fill-opacity:0.37276;stroke:#d2fff6;stroke-linejoin:round;stroke-opacity:1;paint-order:markers fill stroke"
       d="M 2818.6441,972 2877,640 h 64 l 72.5593,332 z"
       id="path1829" />
    <path
       style="fill:#d2fff6;fill-opacity:0.37276;stroke:#d2fff6;stroke-linejoin:round;stroke-opacity:1;paint-order:markers fill stroke"
       d="M 2879.661,972 2941,640 l 64,-128 64,128 56.4237,332 z"
       id="path1831" />
    <path
       style="fill:#d2fff6;fill-opacity:0.37276;stroke:#d2fff6;stroke-linejoin:round;stroke-opacity:1;paint-order:markers fill stroke"
       d="M 3013.5593,972 3069,640 l 64,-32 h 64 l 57.2373,364 z"
       id="path1833" />
    <path
       style="fill:#d2fff6;fill-opacity:0.37276;stroke:#d2fff6;stroke-linejoin:round;stroke-opacity:1;paint-order:markers fill stroke"
       d="M 3177.9661,972 3197,608 l 64,-192 64,192 44.4915,364 z"
       id="path1835" />
    <path
       style="fill:#d2fff6;fill-opacity:0.37276;stroke:#d2fff6;stroke-linejoin:round;stroke-opacity:1;paint-order:markers fill stroke"
       d="M 3298.3051,972 3325,608 l 64,-64 h 64 l 128,64 68.1525,364 z"
       id="path1837" />
    <path
       style="fill:#d2fff6;fill-opacity:0.37276;stroke:#d2fff6;stroke-linejoin:round;stroke-opacity:1;paint-order:markers fill stroke"
       d="M 3535.5932,972 3581,608 l 96,-64 h 352 l 64,128 57,300 z"
       id="path1839"
       sodipodi:nodetypes="ccccccc" />
    <path
       style="fill:#d2fff6;fill-opacity:0.37276;stroke:#d2fff6;stroke-linejoin:round;stroke-opacity:1;paint-order:markers fill stroke"
       d="m 3900,672 -63,-128 64,-160 64,160 z"
       id="path1841" />
    <path
       style="fill:#d2fff6;fill-opacity:0.37276;stroke:#d2fff6;stroke-linejoin:round;stroke-opacity:1;paint-order:markers fill stroke"
       d="M -193,0 H 958 l 64,64 H -193 Z"
       id="path1843"
       sodipodi:nodetypes="ccccc" />
    <path
       style="fill:#d2fff6;fill-opacity:0.37276;stroke:#d2fff6;stroke-linejoin:round;stroke-opacity:1;paint-order:markers fill stroke"
       d="M 191,224 127,64 192.37288,21.15254 255,64 Z"
       id="path1845" />
    <path
       style="fill:#d2fff6;fill-opacity:0.37276;stroke:#d2fff6;stroke-linejoin:round;stroke-opacity:1;paint-order:markers fill stroke"
       d="M 446,160 382,64 450.84746,17.76271 510,64 Z"
       id="path1847" />
    <path
       style="fill:#d2fff6;fill-opacity:0.37276;stroke:#d2fff6;stroke-linejoin:round;stroke-opacity:1;paint-order:markers fill stroke"
       d="m 1278,64 64,-64 h 384 l 64,64 z"
       id="path1849" />
    <path
       style="fill:#d2fff6;fill-opacity:0.37276;stroke:#d2fff6;stroke-linejoin:round;stroke-opacity:1;paint-order:markers fill stroke"
       d="M 1342,224 1278,64 1345.3898,25.42373 1406,64 Z"
       id="path1851"
       sodipodi:nodetypes="ccccc" />
    <path
       style="fill:#d2fff6;fill-opacity:0.37276;stroke:#d2fff6;stroke-linejoin:round;stroke-opacity:1;paint-order:markers fill stroke"
       d="M 1598,192 1534,64 1599.1525,21.18644 1662,64 Z"
       id="path1853"
       sodipodi:nodetypes="ccccc" />
    <path
       style="fill:#d2fff6;fill-opacity:0.37276;stroke:#d2fff6;stroke-linejoin:round;stroke-opacity:1;paint-order:markers fill stroke"
       d="m 2046,64 64,-64 h 1407 l 64,64 z"
       id="path1855" />
    <path
       style="fill:#d2fff6;fill-opacity:0.37276;stroke:#d2fff6;stroke-linejoin:round;stroke-opacity:1;paint-order:markers fill stroke"
       d="M 2238,224 2174,64 2243.5659,30.80995 2302,64 Z"
       id="path1857" />
    <path
       style="fill:#d2fff6;fill-opacity:0.37276;stroke:#d2fff6;stroke-linejoin:round;stroke-opacity:1;paint-order:markers fill stroke"
       d="M 2494,160 2430,64 2497.645,28.41298 2558,64 Z"
       id="path1859" />
    <path
       style="fill:#d2fff6;fill-opacity:0.37276;stroke:#d2fff6;stroke-linejoin:round;stroke-opacity:1;paint-order:markers fill stroke"
       d="M 3517,192 3453,64 3509.1672,33.20693 3581,64 Z"
       id="path1861" />
    <path
       style="fill:#d2fff6;fill-opacity:0.37276;stroke:#d2fff6;stroke-linejoin:round;stroke-opacity:1;paint-order:markers fill stroke"
       d="m 3838,64 64,-64 h 268 l -1,64 z"
       id="path1863"
       sodipodi:nodetypes="ccccc" />
  </g>
  <g
     inkscape:groupmode="layer"
     id="layer2"
     inkscape:label="Visual"
     style="display:inline"
     zoom_top="1.25"
     zoom_bottom="0.3">
    <path
       style="fill:none;fill-opacity:0.189964;stroke:#00ff00;stroke-linejoin:round;stroke-opacity:1;paint-order:markers fill stroke"
       d="m -1,64 h 128 l 64,160 64,-160 h 127 l 64,96 64,-96 h 512 L 958,0 H -1"
       id="path595" />
    <path
       style="fill:none;fill-opacity:0.189964;stroke:#00ff00;stroke-linejoin:round;stroke-opacity:1;paint-order:markers fill stroke"
       d="M 0,672 255,544 H 382 L 446,416 509.75,607.25 541,576 h 96 l 64,-96 64,96 64,64 h 128 l 65,-64 64,-192 64,192 128,96 32,-128 h 64 l 160,128 32,-128 h 64 l 32,128 128,-128 64,96 h 96 l 96,-160 h 128 l 64,-96 64,96 64,-96 64,96 h 96 l 32,128 h 63 l 64,-64 64,-128 64,128 64,96 h 64 l 64,-128 64,128 64,-32 h 64 l 64,-192 64,192 64,-64 h 64 l 128,64 96,-64 h 160 l 64,-160 64,160 h 64 l 64,128"
       id="path1583" />
    <path
       style="fill:none;fill-opacity:0.189964;stroke:#00ff00;stroke-linejoin:round;stroke-opacity:1;paint-order:markers fill stroke"
       d="M 1342,224 1278,64 1342,0 h 384 l 64,64 h -128 l -64,128 -64,-128 h -128 z"
       id="path1585" />
    <path
       style="fill:none;fill-opacity:0.189964;stroke:#00ff00;stroke-linejoin:round;stroke-opacity:1;paint-order:markers fill stroke"
       d="m 2046,64 h 128 l 64,160 64,-160 h 128 l 64,96 64,-96 h 895 l 64,128 64,-128 -64,-64 H 2110 Z"
       id="path1587" />
    <path
       style="fill:none;fill-opacity:0.189964;stroke:#00ff00;stroke-linejoin:round;stroke-opacity:1;paint-order:markers fill stroke"
       d="m 4093,64 h -255 l 64,-64 h 192"
       id="path1589" />
  </g>
  <g
     inkscape:groupmode="layer"
     id="layer4"
     inkscape:label="Zones"
     style="display:inline">
    <rect
       style="fill:#d2fff6;fill-opacity:0.129032;stroke:none;stroke-linejoin:round;stroke-opacity:1;paint-order:markers fill stroke"
       id="bounds"
       width="4093"
       height="2290"
       x="0"
       y="-1514.0386" />
    <rect
       style="fill:#d2be48;fill-opacity:0.129032;stroke:none;stroke-linejoin:round;stroke-opacity:1;paint-order:markers fill stroke"
       id="gravity_falloff"
       width="4093"
       height="1744.9961"
       x="0"
       y="-2865.9309" />
  </g>
</svg>
